<mxfile host="app.diagrams.net" modified="2021-09-08T07:17:25.120Z" agent="5.0 (Windows NT 10.0; Win64; x64) AppleWebKit/537.36 (KHTML, like Gecko) Chrome/93.0.4577.63 Safari/537.36" etag="cgMewpYPozahwvTfdUEK" version="13.10.4" type="github">
  <diagram id="dqqczQXDW6f_qqdrUy-b" name="Page-1">
    <mxGraphModel dx="2302" dy="766" grid="1" gridSize="10" guides="1" tooltips="1" connect="1" arrows="1" fold="1" page="1" pageScale="1" pageWidth="850" pageHeight="1100" math="0" shadow="0">
      <root>
        <mxCell id="0" />
        <mxCell id="1" parent="0" />
        <mxCell id="sX0eM-M-46gOgMuI0mT9-31" value="&lt;font style=&quot;font-size: 17px&quot;&gt;actuators&lt;/font&gt;" style="rounded=0;whiteSpace=wrap;html=1;align=right;fillColor=#fff2cc;strokeColor=#d6b656;" vertex="1" parent="1">
          <mxGeometry x="20" y="450" width="810" height="280" as="geometry" />
        </mxCell>
        <mxCell id="sX0eM-M-46gOgMuI0mT9-29" value="&lt;font style=&quot;font-size: 20px&quot;&gt;SENSORS&lt;/font&gt;" style="rounded=0;whiteSpace=wrap;html=1;align=left;fillColor=#dae8fc;strokeColor=#6c8ebf;" vertex="1" parent="1">
          <mxGeometry x="20" y="20" width="810" height="260" as="geometry" />
        </mxCell>
        <mxCell id="sX0eM-M-46gOgMuI0mT9-2" value="Arduino" style="rounded=0;whiteSpace=wrap;html=1;" vertex="1" parent="1">
          <mxGeometry x="310" y="350" width="170" height="90" as="geometry" />
        </mxCell>
        <mxCell id="sX0eM-M-46gOgMuI0mT9-4" value="water temp" style="rounded=0;whiteSpace=wrap;html=1;" vertex="1" parent="1">
          <mxGeometry x="280" y="40" width="120" height="60" as="geometry" />
        </mxCell>
        <mxCell id="sX0eM-M-46gOgMuI0mT9-5" value="humidity , temp" style="rounded=0;whiteSpace=wrap;html=1;" vertex="1" parent="1">
          <mxGeometry x="410" y="40" width="120" height="60" as="geometry" />
        </mxCell>
        <mxCell id="sX0eM-M-46gOgMuI0mT9-6" value="pH" style="rounded=0;whiteSpace=wrap;html=1;" vertex="1" parent="1">
          <mxGeometry x="490" y="110" width="120" height="60" as="geometry" />
        </mxCell>
        <mxCell id="sX0eM-M-46gOgMuI0mT9-7" value="light sensor" style="rounded=0;whiteSpace=wrap;html=1;" vertex="1" parent="1">
          <mxGeometry x="570" y="200" width="120" height="60" as="geometry" />
        </mxCell>
        <mxCell id="sX0eM-M-46gOgMuI0mT9-8" value="E C" style="rounded=0;whiteSpace=wrap;html=1;" vertex="1" parent="1">
          <mxGeometry x="160" y="120" width="120" height="60" as="geometry" />
        </mxCell>
        <mxCell id="sX0eM-M-46gOgMuI0mT9-9" value="LCD" style="rounded=0;whiteSpace=wrap;html=1;" vertex="1" parent="1">
          <mxGeometry x="240" y="560" width="120" height="60" as="geometry" />
        </mxCell>
        <mxCell id="sX0eM-M-46gOgMuI0mT9-10" value="Rele" style="rounded=0;whiteSpace=wrap;html=1;" vertex="1" parent="1">
          <mxGeometry x="380" y="560" width="120" height="60" as="geometry" />
        </mxCell>
        <mxCell id="sX0eM-M-46gOgMuI0mT9-11" value="Feeder" style="rounded=0;whiteSpace=wrap;html=1;" vertex="1" parent="1">
          <mxGeometry x="540" y="460" width="120" height="60" as="geometry" />
        </mxCell>
        <mxCell id="sX0eM-M-46gOgMuI0mT9-12" value="Lights" style="rounded=0;whiteSpace=wrap;html=1;" vertex="1" parent="1">
          <mxGeometry x="540" y="540" width="120" height="60" as="geometry" />
        </mxCell>
        <mxCell id="sX0eM-M-46gOgMuI0mT9-13" value="Pump" style="rounded=0;whiteSpace=wrap;html=1;" vertex="1" parent="1">
          <mxGeometry x="540" y="620" width="120" height="60" as="geometry" />
        </mxCell>
        <mxCell id="sX0eM-M-46gOgMuI0mT9-14" value="Ups" style="rounded=0;whiteSpace=wrap;html=1;" vertex="1" parent="1">
          <mxGeometry x="20" y="365" width="120" height="60" as="geometry" />
        </mxCell>
        <mxCell id="sX0eM-M-46gOgMuI0mT9-15" value="Power Suply" style="rounded=0;whiteSpace=wrap;html=1;" vertex="1" parent="1">
          <mxGeometry x="160" y="365" width="120" height="60" as="geometry" />
        </mxCell>
        <mxCell id="sX0eM-M-46gOgMuI0mT9-17" value="" style="endArrow=none;html=1;exitX=0.25;exitY=0;exitDx=0;exitDy=0;" edge="1" parent="1" source="sX0eM-M-46gOgMuI0mT9-2" target="sX0eM-M-46gOgMuI0mT9-4">
          <mxGeometry width="50" height="50" relative="1" as="geometry">
            <mxPoint x="400" y="420" as="sourcePoint" />
            <mxPoint x="450" y="370" as="targetPoint" />
          </mxGeometry>
        </mxCell>
        <mxCell id="sX0eM-M-46gOgMuI0mT9-18" value="" style="endArrow=none;html=1;" edge="1" parent="1" source="sX0eM-M-46gOgMuI0mT9-10">
          <mxGeometry width="50" height="50" relative="1" as="geometry">
            <mxPoint x="533.8765306122448" y="710" as="sourcePoint" />
            <mxPoint x="438" y="440" as="targetPoint" />
          </mxGeometry>
        </mxCell>
        <mxCell id="sX0eM-M-46gOgMuI0mT9-19" value="" style="endArrow=none;html=1;exitX=0.25;exitY=1;exitDx=0;exitDy=0;" edge="1" parent="1" source="sX0eM-M-46gOgMuI0mT9-2" target="sX0eM-M-46gOgMuI0mT9-9">
          <mxGeometry width="50" height="50" relative="1" as="geometry">
            <mxPoint x="400" y="420" as="sourcePoint" />
            <mxPoint x="450" y="370" as="targetPoint" />
          </mxGeometry>
        </mxCell>
        <mxCell id="sX0eM-M-46gOgMuI0mT9-20" value="" style="endArrow=none;html=1;entryX=0.5;entryY=1;entryDx=0;entryDy=0;exitX=0.612;exitY=0;exitDx=0;exitDy=0;exitPerimeter=0;" edge="1" parent="1" source="sX0eM-M-46gOgMuI0mT9-2" target="sX0eM-M-46gOgMuI0mT9-5">
          <mxGeometry width="50" height="50" relative="1" as="geometry">
            <mxPoint x="400" y="420" as="sourcePoint" />
            <mxPoint x="450" y="370" as="targetPoint" />
          </mxGeometry>
        </mxCell>
        <mxCell id="sX0eM-M-46gOgMuI0mT9-21" value="" style="endArrow=none;html=1;exitX=0.9;exitY=0;exitDx=0;exitDy=0;exitPerimeter=0;" edge="1" parent="1" source="sX0eM-M-46gOgMuI0mT9-2" target="sX0eM-M-46gOgMuI0mT9-6">
          <mxGeometry width="50" height="50" relative="1" as="geometry">
            <mxPoint x="400" y="420" as="sourcePoint" />
            <mxPoint x="450" y="370" as="targetPoint" />
          </mxGeometry>
        </mxCell>
        <mxCell id="sX0eM-M-46gOgMuI0mT9-22" value="" style="endArrow=none;html=1;entryX=0;entryY=1;entryDx=0;entryDy=0;exitX=1;exitY=0.5;exitDx=0;exitDy=0;" edge="1" parent="1" source="sX0eM-M-46gOgMuI0mT9-2" target="sX0eM-M-46gOgMuI0mT9-7">
          <mxGeometry width="50" height="50" relative="1" as="geometry">
            <mxPoint x="400" y="420" as="sourcePoint" />
            <mxPoint x="450" y="370" as="targetPoint" />
          </mxGeometry>
        </mxCell>
        <mxCell id="sX0eM-M-46gOgMuI0mT9-23" value="" style="endArrow=none;html=1;exitX=0;exitY=0;exitDx=0;exitDy=0;" edge="1" parent="1" source="sX0eM-M-46gOgMuI0mT9-2" target="sX0eM-M-46gOgMuI0mT9-8">
          <mxGeometry width="50" height="50" relative="1" as="geometry">
            <mxPoint x="400" y="420" as="sourcePoint" />
            <mxPoint x="450" y="370" as="targetPoint" />
          </mxGeometry>
        </mxCell>
        <mxCell id="sX0eM-M-46gOgMuI0mT9-24" value="" style="endArrow=none;html=1;exitX=1;exitY=0.5;exitDx=0;exitDy=0;entryX=0;entryY=0.5;entryDx=0;entryDy=0;" edge="1" parent="1" source="sX0eM-M-46gOgMuI0mT9-15" target="sX0eM-M-46gOgMuI0mT9-2">
          <mxGeometry width="50" height="50" relative="1" as="geometry">
            <mxPoint x="400" y="420" as="sourcePoint" />
            <mxPoint x="450" y="370" as="targetPoint" />
          </mxGeometry>
        </mxCell>
        <mxCell id="sX0eM-M-46gOgMuI0mT9-25" value="" style="endArrow=none;html=1;entryX=0;entryY=0.5;entryDx=0;entryDy=0;" edge="1" parent="1" source="sX0eM-M-46gOgMuI0mT9-14" target="sX0eM-M-46gOgMuI0mT9-15">
          <mxGeometry width="50" height="50" relative="1" as="geometry">
            <mxPoint x="400" y="420" as="sourcePoint" />
            <mxPoint x="450" y="370" as="targetPoint" />
          </mxGeometry>
        </mxCell>
        <mxCell id="sX0eM-M-46gOgMuI0mT9-26" value="" style="endArrow=none;html=1;entryX=0;entryY=0.5;entryDx=0;entryDy=0;exitX=1;exitY=0;exitDx=0;exitDy=0;" edge="1" parent="1" source="sX0eM-M-46gOgMuI0mT9-10" target="sX0eM-M-46gOgMuI0mT9-11">
          <mxGeometry width="50" height="50" relative="1" as="geometry">
            <mxPoint x="400" y="420" as="sourcePoint" />
            <mxPoint x="450" y="370" as="targetPoint" />
          </mxGeometry>
        </mxCell>
        <mxCell id="sX0eM-M-46gOgMuI0mT9-27" value="" style="endArrow=none;html=1;entryX=0;entryY=0.75;entryDx=0;entryDy=0;exitX=1;exitY=0.5;exitDx=0;exitDy=0;" edge="1" parent="1" source="sX0eM-M-46gOgMuI0mT9-10" target="sX0eM-M-46gOgMuI0mT9-12">
          <mxGeometry width="50" height="50" relative="1" as="geometry">
            <mxPoint x="400" y="420" as="sourcePoint" />
            <mxPoint x="450" y="370" as="targetPoint" />
          </mxGeometry>
        </mxCell>
        <mxCell id="sX0eM-M-46gOgMuI0mT9-28" value="" style="endArrow=none;html=1;entryX=0;entryY=0.5;entryDx=0;entryDy=0;exitX=1;exitY=0.75;exitDx=0;exitDy=0;" edge="1" parent="1" source="sX0eM-M-46gOgMuI0mT9-10" target="sX0eM-M-46gOgMuI0mT9-13">
          <mxGeometry width="50" height="50" relative="1" as="geometry">
            <mxPoint x="400" y="420" as="sourcePoint" />
            <mxPoint x="450" y="370" as="targetPoint" />
          </mxGeometry>
        </mxCell>
      </root>
    </mxGraphModel>
  </diagram>
</mxfile>
